<svg id="visual" viewBox="0 0 900 600" width="900" height="600" xmlns="http://www.w3.org/2000/svg" xmlns:xlink="http://www.w3.org/1999/xlink" version="1.1"><g stroke-width="1" stroke-linejoin="bevel"><path d="M438 336L419 363L496 367Z" fill="#205a7a" stroke="#205a7a"></path><path d="M496 367L480 337L438 336Z" fill="#205a7a" stroke="#205a7a"></path><path d="M419 363L395 481L496 367Z" fill="#297ea6" stroke="#297ea6"></path><path d="M395 481L532 479L496 367Z" fill="#081a28" stroke="#081a28"></path><path d="M480 337L420 226L438 336Z" fill="#19435d" stroke="#19435d"></path><path d="M438 336L299 312L419 363Z" fill="#277297" stroke="#277297"></path><path d="M419 363L268 380L395 481Z" fill="#081a28" stroke="#081a28"></path><path d="M532 479L609 433L496 367Z" fill="#081a28" stroke="#081a28"></path><path d="M572 221L509 190L480 337Z" fill="#112e42" stroke="#112e42"></path><path d="M480 337L509 190L420 226Z" fill="#0c2435" stroke="#0c2435"></path><path d="M420 226L299 312L438 336Z" fill="#081a28" stroke="#081a28"></path><path d="M572 221L480 337L629 292Z" fill="#297ea6" stroke="#297ea6"></path><path d="M629 292L480 337L496 367Z" fill="#277297" stroke="#277297"></path><path d="M609 433L629 292L496 367Z" fill="#205a7a" stroke="#205a7a"></path><path d="M299 312L268 380L419 363Z" fill="#297ea6" stroke="#297ea6"></path><path d="M268 380L289 500L395 481Z" fill="#297ea6" stroke="#297ea6"></path><path d="M621 600L628 516L532 479Z" fill="#00101c" stroke="#00101c"></path><path d="M532 479L628 516L609 433Z" fill="#081a28" stroke="#081a28"></path><path d="M609 433L703 416L629 292Z" fill="#00101c" stroke="#00101c"></path><path d="M493 600L532 479L395 481Z" fill="#277297" stroke="#277297"></path><path d="M299 312L229 368L268 380Z" fill="#15384f" stroke="#15384f"></path><path d="M268 380L229 368L289 500Z" fill="#112e42" stroke="#112e42"></path><path d="M372 600L493 600L395 481Z" fill="#297ea6" stroke="#297ea6"></path><path d="M662 600L662 504L628 516Z" fill="#205a7a" stroke="#205a7a"></path><path d="M628 516L662 504L609 433Z" fill="#246688" stroke="#246688"></path><path d="M289 500L372 600L395 481Z" fill="#205a7a" stroke="#205a7a"></path><path d="M662 504L703 416L609 433Z" fill="#081a28" stroke="#081a28"></path><path d="M437 108L284 179L420 226Z" fill="#1d4e6b" stroke="#1d4e6b"></path><path d="M420 226L284 179L299 312Z" fill="#297ea6" stroke="#297ea6"></path><path d="M299 312L191 339L229 368Z" fill="#19435d" stroke="#19435d"></path><path d="M531 110L437 108L509 190Z" fill="#277297" stroke="#277297"></path><path d="M509 190L437 108L420 226Z" fill="#19435d" stroke="#19435d"></path><path d="M629 292L684 161L572 221Z" fill="#081a28" stroke="#081a28"></path><path d="M572 221L531 110L509 190Z" fill="#277297" stroke="#277297"></path><path d="M703 416L711 289L629 292Z" fill="#112e42" stroke="#112e42"></path><path d="M169 181L191 339L299 312Z" fill="#081a28" stroke="#081a28"></path><path d="M229 368L195 539L289 500Z" fill="#081a28" stroke="#081a28"></path><path d="M636 110L531 110L572 221Z" fill="#0c2435" stroke="#0c2435"></path><path d="M493 600L621 600L532 479Z" fill="#112e42" stroke="#112e42"></path><path d="M662 504L787 468L703 416Z" fill="#205a7a" stroke="#205a7a"></path><path d="M289 500L269 600L372 600Z" fill="#246688" stroke="#246688"></path><path d="M195 539L269 600L289 500Z" fill="#297ea6" stroke="#297ea6"></path><path d="M621 600L662 600L628 516Z" fill="#00101c" stroke="#00101c"></path><path d="M711 289L684 161L629 292Z" fill="#297ea6" stroke="#297ea6"></path><path d="M82 423L195 539L229 368Z" fill="#15384f" stroke="#15384f"></path><path d="M684 161L636 110L572 221Z" fill="#081a28" stroke="#081a28"></path><path d="M361 0L277 100L437 108Z" fill="#1d4e6b" stroke="#1d4e6b"></path><path d="M437 108L277 100L284 179Z" fill="#1d4e6b" stroke="#1d4e6b"></path><path d="M284 179L169 181L299 312Z" fill="#00101c" stroke="#00101c"></path><path d="M503 0L437 108L531 110Z" fill="#0c2435" stroke="#0c2435"></path><path d="M684 161L707 136L636 110Z" fill="#246688" stroke="#246688"></path><path d="M791 207L707 136L684 161Z" fill="#0c2435" stroke="#0c2435"></path><path d="M662 600L787 468L662 504Z" fill="#297ea6" stroke="#297ea6"></path><path d="M703 416L804 378L711 289Z" fill="#081a28" stroke="#081a28"></path><path d="M711 289L791 207L684 161Z" fill="#246688" stroke="#246688"></path><path d="M277 100L169 181L284 179Z" fill="#297ea6" stroke="#297ea6"></path><path d="M191 339L82 423L229 368Z" fill="#19435d" stroke="#19435d"></path><path d="M787 468L804 378L703 416Z" fill="#081a28" stroke="#081a28"></path><path d="M195 539L197 600L269 600Z" fill="#246688" stroke="#246688"></path><path d="M129 600L197 600L195 539Z" fill="#00101c" stroke="#00101c"></path><path d="M169 181L98 302L191 339Z" fill="#19435d" stroke="#19435d"></path><path d="M900 386L824 318L804 378Z" fill="#0c2435" stroke="#0c2435"></path><path d="M804 378L824 318L711 289Z" fill="#277297" stroke="#277297"></path><path d="M824 318L791 207L711 289Z" fill="#15384f" stroke="#15384f"></path><path d="M611 0L531 110L636 110Z" fill="#277297" stroke="#277297"></path><path d="M611 0L503 0L531 110Z" fill="#246688" stroke="#246688"></path><path d="M98 302L82 423L191 339Z" fill="#00101c" stroke="#00101c"></path><path d="M503 0L361 0L437 108Z" fill="#081a28" stroke="#081a28"></path><path d="M277 100L216 68L169 181Z" fill="#15384f" stroke="#15384f"></path><path d="M278 0L216 68L277 100Z" fill="#277297" stroke="#277297"></path><path d="M169 181L92 187L98 302Z" fill="#1d4e6b" stroke="#1d4e6b"></path><path d="M791 207L768 136L707 136Z" fill="#081a28" stroke="#081a28"></path><path d="M722 0L611 0L636 110Z" fill="#205a7a" stroke="#205a7a"></path><path d="M82 423L99 531L195 539Z" fill="#0c2435" stroke="#0c2435"></path><path d="M722 0L636 110L707 136Z" fill="#205a7a" stroke="#205a7a"></path><path d="M99 531L129 600L195 539Z" fill="#205a7a" stroke="#205a7a"></path><path d="M216 68L127 138L169 181Z" fill="#277297" stroke="#277297"></path><path d="M127 138L92 187L169 181Z" fill="#081a28" stroke="#081a28"></path><path d="M98 302L0 437L82 423Z" fill="#246688" stroke="#246688"></path><path d="M361 0L278 0L277 100Z" fill="#205a7a" stroke="#205a7a"></path><path d="M216 68L162 0L127 138Z" fill="#297ea6" stroke="#297ea6"></path><path d="M662 600L826 600L787 468Z" fill="#0c2435" stroke="#0c2435"></path><path d="M787 468L900 386L804 378Z" fill="#15384f" stroke="#15384f"></path><path d="M900 515L900 386L787 468Z" fill="#0c2435" stroke="#0c2435"></path><path d="M824 318L900 307L791 207Z" fill="#246688" stroke="#246688"></path><path d="M791 207L900 138L768 136Z" fill="#112e42" stroke="#112e42"></path><path d="M900 386L900 307L824 318Z" fill="#277297" stroke="#277297"></path><path d="M815 0L722 0L768 136Z" fill="#0c2435" stroke="#0c2435"></path><path d="M768 136L722 0L707 136Z" fill="#19435d" stroke="#19435d"></path><path d="M82 423L0 487L99 531Z" fill="#00101c" stroke="#00101c"></path><path d="M99 531L0 600L129 600Z" fill="#246688" stroke="#246688"></path><path d="M0 269L0 437L98 302Z" fill="#1d4e6b" stroke="#1d4e6b"></path><path d="M826 600L900 515L787 468Z" fill="#246688" stroke="#246688"></path><path d="M0 206L0 269L92 187Z" fill="#081a28" stroke="#081a28"></path><path d="M92 187L0 269L98 302Z" fill="#246688" stroke="#246688"></path><path d="M0 437L0 487L82 423Z" fill="#19435d" stroke="#19435d"></path><path d="M278 0L162 0L216 68Z" fill="#112e42" stroke="#112e42"></path><path d="M0 91L0 206L92 187Z" fill="#15384f" stroke="#15384f"></path><path d="M900 307L900 187L791 207Z" fill="#297ea6" stroke="#297ea6"></path><path d="M0 91L92 187L127 138Z" fill="#081a28" stroke="#081a28"></path><path d="M826 600L900 600L900 515Z" fill="#1d4e6b" stroke="#1d4e6b"></path><path d="M900 187L900 138L791 207Z" fill="#15384f" stroke="#15384f"></path><path d="M0 487L0 600L99 531Z" fill="#19435d" stroke="#19435d"></path><path d="M900 138L815 0L768 136Z" fill="#15384f" stroke="#15384f"></path><path d="M162 0L84 0L127 138Z" fill="#1d4e6b" stroke="#1d4e6b"></path><path d="M84 0L0 91L127 138Z" fill="#15384f" stroke="#15384f"></path><path d="M900 138L900 0L815 0Z" fill="#15384f" stroke="#15384f"></path><path d="M84 0L0 0L0 91Z" fill="#277297" stroke="#277297"></path></g></svg>